<?xml version="1.0" encoding="UTF-8" standalone="no"?>
<!-- Created with Inkscape (http://www.inkscape.org/) -->
<svg width="128" height="128" xmlns="http://www.w3.org/2000/svg" xmlns:xlink="http://www.w3.org/1999/xlink">
 <metadata id="metadata61">image/svg+xml</metadata>
 <defs>
  <clipPath clipPathUnits="userSpaceOnUse" id="clipPath6103">
   <path id="path6105" d="m200.1619,45.29492c-5.42224,0.21248 -9.70739,4.67182 -9.70376,10.09822l0,25.24554c0.0171,3.48723 1.83207,6.71892 4.80092,8.54838c2.96888,1.82946 6.67151,1.99782 9.79416,0.44534l25.24554,-12.62277c3.37866,-1.72589 5.50499,-5.19977 5.50499,-8.99372c0,-3.79395 -2.12633,-7.26783 -5.50499,-8.99372l-25.24554,-12.62277c-1.51165,-0.77352 -3.19397,-1.1534 -4.89132,-1.1045z" fill-rule="evenodd" fill="url(#radialGradient6107)"/>
  </clipPath>
  <clipPath clipPathUnits="userSpaceOnUse" id="clipPath6097">
   <path d="m151.42888,45.29492c-5.42224,0.21248 -9.70739,4.67182 -9.70376,10.09822l0,25.24554c0.0171,3.48723 1.83207,6.71892 4.80092,8.54838c2.96888,1.82946 6.67151,1.99782 9.79416,0.44534l25.24554,-12.62277c3.37866,-1.72589 5.50499,-5.19977 5.50499,-8.99372c0,-3.79395 -2.12633,-7.26783 -5.50499,-8.99372l-25.24554,-12.62277c-1.51165,-0.77352 -3.19397,-1.1534 -4.89132,-1.1045z" id="path6099" fill-rule="evenodd" fill="url(#radialGradient6101)"/>
  </clipPath>
  <radialGradient xlink:href="#linearGradient3184" id="radialGradient6101" gradientUnits="userSpaceOnUse" gradientTransform="matrix(0.9739412,0,0,0.9750591,-92.994702,1.6957237)" cx="255" cy="63.00572" fx="262.43524" fy="71.575" r="23.27944"/>
  <radialGradient xlink:href="#linearGradient3184" id="radialGradient6107" gradientUnits="userSpaceOnUse" gradientTransform="matrix(0.9739412,0,0,0.9750591,-44.261685,1.6957237)" cx="255" cy="63.00572" fx="262.43524" fy="71.575" r="23.27944"/>
  <linearGradient id="linearGradient3923">
   <stop offset="0" id="stop3925" stop-color="#f1f1f1"/>
   <stop offset="1" id="stop3927" stop-color="#d6d6d6"/>
  </linearGradient>
  <linearGradient xlink:href="#linearGradient3923" id="linearGradient4095" x1="0.23077" y1="0.13333" x2="0.61538" y2="0.93333"/>
  <linearGradient xlink:href="#linearGradient3923" id="linearGradient4097" x1="0.23077" y1="0.13333" x2="0.61538" y2="0.93333"/>
 </defs>
 <g>
  <title>background</title>
  <rect x="-1" y="-1" width="130" height="130" id="canvas_background" fill="none"/>
 </g>
 <g>
  <title>Layer 1</title>
  <g id="svg_42" stroke="null">
   <rect id="svg_37" width="32" height="32" fill=" none" transform="matrix(0.0028444469663837513,0,0,0.0028444469663837513,0,0) " stroke="null" y="1523.538297" x="16641.725859"/>
   <g id="svg_39" transform="matrix(0.0028444469663837513,0,0,0.0028444469663837513,0,0) " stroke="null">
    <path d="m16667.17051,1527.82933c0,0 -1.325,1.293 -2.243,2.201c-4.687,-3.424 -11.292,-3.036 -15.525,1.197c-2.47,2.47 -3.623,5.747 -3.484,8.983l4,0c-0.141,-2.212 0.618,-4.467 2.308,-6.158c2.663,-2.663 6.735,-3.043 9.812,-1.162c-1.042,1.032 -2.245,2.238 -2.245,2.238c-0.841,1.009 0.104,1.592 0.584,1.577l5.624,-0.001c0.297,0 0.539,0.001 0.539,0.001s0.245,0 0.543,0l1.092,0c0.298,0 0.54,-0.243 0.54,-0.541l0,-7.731c0.034,-0.707 -0.742,-1.393 -1.545,-0.604z" fill="#515151" id="svg_40" stroke="null"/>
    <path d="m16648.28151,1551.24733c0,0 1.326,-1.293 2.243,-2.201c4.688,3.424 11.292,3.036 15.526,-1.197c2.47,-2.471 3.622,-5.747 3.484,-8.983l-4.001,0c0.142,2.211 -0.617,4.467 -2.308,6.159c-2.663,2.662 -6.735,3.043 -9.812,1.161c1.042,-1.032 2.245,-2.238 2.245,-2.238c0.841,-1.01 -0.104,-1.592 -0.584,-1.577l-5.624,0.002c-0.297,0 -0.54,-0.002 -0.54,-0.002s-0.245,0 -0.543,0l-1.09,0c-0.298,0 -0.54,0.242 -0.541,0.541l0,7.732c-0.033,0.706 0.743,1.392 1.545,0.603z" fill="#515151" id="svg_41" stroke="null"/>
   </g>
  </g>
  <path d="m38.59171,33.15378l41.88971,0.0081l0,31.47893" id="path3974" stroke-width="3" fill-opacity="0" fill="#000073" stroke="#2b3b4d"/>
  <rect ry="1" rx="1" y="6.709872" x="5.20121" height="59.830471" width="53.709047" id="rect3921" stroke-dashoffset="0" stroke-miterlimit="4" stroke-linejoin="round" stroke-linecap="round" fill-rule="evenodd" fill="url(#linearGradient4097)" stroke="#888a85" stroke-width="5"/>
  <path id="path3931" d="m5.20121,21.99791l53.70905,0" stroke-dashoffset="0" stroke-miterlimit="4" stroke-linejoin="round" stroke-linecap="round" fill-rule="evenodd" fill="#eeeeec" stroke="#888a85" stroke-width="2"/>
  <path id="path3933" d="m13.13078,33.96401l8.26293,0" stroke-dashoffset="0" stroke-miterlimit="4" stroke-linejoin="round" stroke-linecap="round" fill-rule="evenodd" fill="#7DD8B5" stroke="#ffff00" stroke-width="5"/>
  <path id="path3935" d="m13.46414,46.26346l8.26293,0" stroke-dashoffset="0" stroke-miterlimit="4" stroke-linejoin="round" stroke-linecap="round" fill-rule="evenodd" fill="#eeeeec" stroke="#888a85" stroke-width="5"/>
  <path id="path3937" d="m13.46414,58.22959l8.26293,0" stroke-dashoffset="0" stroke-miterlimit="4" stroke-linejoin="round" stroke-linecap="round" fill-rule="evenodd" fill="#eeeeec" stroke="#888a85" stroke-width="5"/>
  <path id="path3939" d="m33.78811,33.96401l16.52586,0" stroke-dashoffset="0" stroke-miterlimit="4" stroke-linejoin="round" stroke-linecap="round" fill-rule="evenodd" fill="#7DD8B5" stroke="#ffff00" stroke-width="5"/>
  <path id="path3941" d="m33.86482,46.09705l16.78251,0.16641" stroke-dashoffset="0" stroke-miterlimit="4" stroke-linejoin="round" stroke-linecap="round" fill-rule="evenodd" fill="#eeeeec" stroke="#888a85" stroke-width="5"/>
  <path id="path3943" d="m34.12147,57.89623l16.52586,0" stroke-dashoffset="0" stroke-miterlimit="4" stroke-linejoin="round" stroke-linecap="round" fill-rule="evenodd" fill="#eeeeec" stroke="#888a85" stroke-width="5"/>
  <path id="path3945" d="m13.75785,14.04333l7.96922,-0.02281" stroke-dashoffset="0" stroke-miterlimit="4" stroke-linejoin="round" stroke-linecap="round" fill-rule="evenodd" fill="#eeeeec" stroke="#888a85" stroke-width="5"/>
  <path id="path3947" d="m34.12147,14.02052l16.52586,0" stroke-dashoffset="0" stroke-miterlimit="4" stroke-linejoin="round" stroke-linecap="round" fill-rule="evenodd" fill="#eeeeec" stroke="#888a85" stroke-width="5"/>
  <rect id="rect4075" width="53.709047" height="59.830471" x="68.481416" y="62.02033" rx="1" ry="1" stroke-dashoffset="0" stroke-miterlimit="4" stroke-linejoin="round" stroke-linecap="round" fill-rule="evenodd" fill="url(#linearGradient4095)" stroke="#888a85" stroke-width="5"/>
  <path d="m68.48142,77.64177l53.70904,0" id="path4077" stroke-dashoffset="0" stroke-miterlimit="4" stroke-linejoin="round" stroke-linecap="round" fill-rule="evenodd" fill="#eeeeec" stroke="#888a85" stroke-width="2"/>
  <path d="m76.74435,89.94122l8.26293,0" id="path4079" stroke-dashoffset="0" stroke-miterlimit="4" stroke-linejoin="round" stroke-linecap="round" fill-rule="evenodd" fill="#eeeeec" stroke="#888a85" stroke-width="5"/>
  <path d="m76.41099,101.57395l8.26293,0" id="path4081" stroke-dashoffset="0" stroke-miterlimit="4" stroke-linejoin="round" stroke-linecap="round" fill-rule="evenodd" fill="#7DD8B5" stroke="#ffff00" stroke-width="5"/>
  <path d="m76.41099,113.54009l8.26293,0" id="path4083" stroke-dashoffset="0" stroke-miterlimit="4" stroke-linejoin="round" stroke-linecap="round" fill-rule="evenodd" fill="#7DD8B5" stroke="#ffff00" stroke-width="5"/>
  <path d="m97.40167,89.94122l16.52586,0" id="path4085" stroke-dashoffset="0" stroke-miterlimit="4" stroke-linejoin="round" stroke-linecap="round" fill-rule="evenodd" fill="#eeeeec" stroke="#888a85" stroke-width="5"/>
  <path d="m96.81167,101.40755l16.78251,0.1664" id="path4087" stroke-dashoffset="0" stroke-miterlimit="4" stroke-linejoin="round" stroke-linecap="round" fill-rule="evenodd" fill="#7DD8B5" stroke="#ffff00" stroke-width="5"/>
  <path d="m97.06832,113.54009l16.52586,0" id="path4089" stroke-dashoffset="0" stroke-miterlimit="4" stroke-linejoin="round" stroke-linecap="round" fill-rule="evenodd" fill="#7DD8B5" stroke="#ffff00" stroke-width="5"/>
  <path d="m77.03805,70.02054l7.96923,-0.02281" id="path4091" stroke-dashoffset="0" stroke-miterlimit="4" stroke-linejoin="round" stroke-linecap="round" fill-rule="evenodd" fill="#eeeeec" stroke="#888a85" stroke-width="5"/>
  <path d="m97.40167,69.99773l16.52586,0" id="path4093" stroke-dashoffset="0" stroke-miterlimit="4" stroke-linejoin="round" stroke-linecap="round" fill-rule="evenodd" fill="#eeeeec" stroke="#888a85" stroke-width="5"/>
 </g>
</svg>