<?xml version="1.0" encoding="UTF-8" standalone="no"?>
<!-- Created with Inkscape (http://www.inkscape.org/) -->

<svg
   xmlns:dc="http://purl.org/dc/elements/1.1/"
   xmlns:cc="http://creativecommons.org/ns#"
   xmlns:rdf="http://www.w3.org/1999/02/22-rdf-syntax-ns#"
   xmlns:svg="http://www.w3.org/2000/svg"
   xmlns="http://www.w3.org/2000/svg"
   xmlns:xlink="http://www.w3.org/1999/xlink"
   xmlns:sodipodi="http://sodipodi.sourceforge.net/DTD/sodipodi-0.dtd"
   xmlns:inkscape="http://www.inkscape.org/namespaces/inkscape"
   width="128"
   height="128"
   id="svg2"
   version="1.1"
   inkscape:version="0.91 r13725"
   sodipodi:docname="settings.svg">
  <sodipodi:namedview
     pagecolor="#ffffff"
     bordercolor="#666666"
     borderopacity="1"
     objecttolerance="10"
     gridtolerance="10"
     guidetolerance="10"
     inkscape:pageopacity="0"
     inkscape:pageshadow="2"
     inkscape:window-width="1294"
     inkscape:window-height="766"
     id="namedview53"
     showgrid="false"
     inkscape:zoom="1.84375"
     inkscape:cx="64"
     inkscape:cy="20.610169"
     inkscape:window-x="0"
     inkscape:window-y="0"
     inkscape:window-maximized="0"
     inkscape:current-layer="svg2" />
  <metadata
     id="metadata61">image/svg+xml<rdf:RDF>
  <cc:Work
     rdf:about="">
    <dc:format>image/svg+xml</dc:format>
    <dc:type
       rdf:resource="http://purl.org/dc/dcmitype/StillImage" />
    <dc:title></dc:title>
  </cc:Work>
</rdf:RDF>
</metadata>
  <defs
     id="defs5">
    <clipPath
       clipPathUnits="userSpaceOnUse"
       id="clipPath6103">
      <path
         id="path6105"
         d="m200.1619,45.29492c-5.42224,0.21248 -9.70739,4.67182 -9.70376,10.09822l0,25.24554c0.0171,3.48723 1.83207,6.71892 4.80092,8.54838c2.96888,1.82946 6.67151,1.99782 9.79416,0.44534l25.24554,-12.62277c3.37866,-1.72589 5.50499,-5.19977 5.50499,-8.99372c0,-3.79395 -2.12633,-7.26783 -5.50499,-8.99372l-25.24554,-12.62277c-1.51165,-0.77352 -3.19397,-1.1534 -4.89132,-1.1045z"
         fill-rule="evenodd"
         fill="url(#radialGradient6107)" />
    </clipPath>
    <clipPath
       clipPathUnits="userSpaceOnUse"
       id="clipPath6097">
      <path
         d="m151.42888,45.29492c-5.42224,0.21248 -9.70739,4.67182 -9.70376,10.09822l0,25.24554c0.0171,3.48723 1.83207,6.71892 4.80092,8.54838c2.96888,1.82946 6.67151,1.99782 9.79416,0.44534l25.24554,-12.62277c3.37866,-1.72589 5.50499,-5.19977 5.50499,-8.99372c0,-3.79395 -2.12633,-7.26783 -5.50499,-8.99372l-25.24554,-12.62277c-1.51165,-0.77352 -3.19397,-1.1534 -4.89132,-1.1045z"
         id="path6099"
         fill-rule="evenodd"
         fill="url(#radialGradient6101)" />
    </clipPath>
    <radialGradient
       xlink:href="#linearGradient3184"
       id="radialGradient6101"
       gradientUnits="userSpaceOnUse"
       gradientTransform="matrix(0.9739412,0,0,0.9750591,-92.994702,1.6957237)"
       cx="255"
       cy="63.00572"
       fx="262.43524"
       fy="71.575"
       r="23.27944" />
    <radialGradient
       xlink:href="#linearGradient3184"
       id="radialGradient6107"
       gradientUnits="userSpaceOnUse"
       gradientTransform="matrix(0.9739412,0,0,0.9750591,-44.261685,1.6957237)"
       cx="255"
       cy="63.00572"
       fx="262.43524"
       fy="71.575"
       r="23.27944" />
    <linearGradient
       id="linearGradient3923">
      <stop
         offset="0"
         id="stop3925"
         stop-color="#f1f1f1" />
      <stop
         offset="1"
         id="stop3927"
         stop-color="#d6d6d6" />
    </linearGradient>
    <linearGradient
       xlink:href="#linearGradient3923"
       id="linearGradient4095"
       x1="0.23077"
       y1="0.13333"
       x2="0.61538"
       y2="0.93333" />
    <linearGradient
       xlink:href="#linearGradient3923"
       id="linearGradient4097"
       x1="0.23077"
       y1="0.13333"
       x2="0.61538"
       y2="0.93333" />
  </defs>
  <g
     id="g18">
    <title
       id="title20">background</title>
    <rect
       x="-1"
       y="-1"
       width="130"
       height="130"
       id="canvas_background"
       fill="none" />
  </g>
  <g
     id="g23">
    <title
       id="title25">Layer 1</title>
    <g
       id="svg_42"
       stroke="null">
      <rect
         id="svg_37"
         width="32"
         height="32"
         fill=" none"
         transform="matrix(0.0028444469663837513,0,0,0.0028444469663837513,0,0) "
         stroke="null"
         y="1523.538297"
         x="16641.725859" />
      <g
         id="svg_39"
         transform="matrix(0.0028444469663837513,0,0,0.0028444469663837513,0,0) "
         stroke="null">
        <path
           d="m16667.17051,1527.82933c0,0 -1.325,1.293 -2.243,2.201c-4.687,-3.424 -11.292,-3.036 -15.525,1.197c-2.47,2.47 -3.623,5.747 -3.484,8.983l4,0c-0.141,-2.212 0.618,-4.467 2.308,-6.158c2.663,-2.663 6.735,-3.043 9.812,-1.162c-1.042,1.032 -2.245,2.238 -2.245,2.238c-0.841,1.009 0.104,1.592 0.584,1.577l5.624,-0.001c0.297,0 0.539,0.001 0.539,0.001s0.245,0 0.543,0l1.092,0c0.298,0 0.54,-0.243 0.54,-0.541l0,-7.731c0.034,-0.707 -0.742,-1.393 -1.545,-0.604z"
           fill="#515151"
           id="svg_40"
           stroke="null" />
        <path
           d="m16648.28151,1551.24733c0,0 1.326,-1.293 2.243,-2.201c4.688,3.424 11.292,3.036 15.526,-1.197c2.47,-2.471 3.622,-5.747 3.484,-8.983l-4.001,0c0.142,2.211 -0.617,4.467 -2.308,6.159c-2.663,2.662 -6.735,3.043 -9.812,1.161c1.042,-1.032 2.245,-2.238 2.245,-2.238c0.841,-1.01 -0.104,-1.592 -0.584,-1.577l-5.624,0.002c-0.297,0 -0.54,-0.002 -0.54,-0.002s-0.245,0 -0.543,0l-1.09,0c-0.298,0 -0.54,0.242 -0.541,0.541l0,7.732c-0.033,0.706 0.743,1.392 1.545,0.603z"
           fill="#515151"
           id="svg_41"
           stroke="null" />
      </g>
    </g>
    <path
       d="m38.59171,33.15378l41.88971,0.0081l0,31.47893"
       id="path3974"
       stroke-width="3"
       fill-opacity="0"
       fill="#000073"
       stroke="#2b3b4d" />
    <rect
       ry="1"
       rx="1"
       y="6.709872"
       x="5.20121"
       height="59.830471"
       width="53.709047"
       id="rect3921"
       stroke-dashoffset="0"
       stroke-miterlimit="4"
       stroke-linejoin="round"
       stroke-linecap="round"
       fill-rule="evenodd"
       fill="url(#linearGradient4097)"
       stroke="#888a85"
       stroke-width="5" />
    <path
       id="path3931"
       d="m5.20121,21.99791l53.70905,0"
       stroke-dashoffset="0"
       stroke-miterlimit="4"
       stroke-linejoin="round"
       stroke-linecap="round"
       fill-rule="evenodd"
       fill="#eeeeec"
       stroke="#888a85"
       stroke-width="2" />
    <path
       id="path3933"
       d="m13.13078,33.96401l8.26293,0"
       stroke-dashoffset="0"
       stroke-miterlimit="4"
       stroke-linejoin="round"
       stroke-linecap="round"
       fill-rule="evenodd"
       fill="#7DD8B5"
       stroke="#ffff00"
       stroke-width="5" />
    <path
       id="path3935"
       d="m13.46414,46.26346l8.26293,0"
       stroke-dashoffset="0"
       stroke-miterlimit="4"
       stroke-linejoin="round"
       stroke-linecap="round"
       fill-rule="evenodd"
       fill="#eeeeec"
       stroke="#888a85"
       stroke-width="5" />
    <path
       id="path3937"
       d="m13.46414,58.22959l8.26293,0"
       stroke-dashoffset="0"
       stroke-miterlimit="4"
       stroke-linejoin="round"
       stroke-linecap="round"
       fill-rule="evenodd"
       fill="#eeeeec"
       stroke="#888a85"
       stroke-width="5" />
    <path
       id="path3939"
       d="m33.78811,33.96401l16.52586,0"
       stroke-dashoffset="0"
       stroke-miterlimit="4"
       stroke-linejoin="round"
       stroke-linecap="round"
       fill-rule="evenodd"
       fill="#7DD8B5"
       stroke="#ffff00"
       stroke-width="5" />
    <path
       id="path3941"
       d="m33.86482,46.09705l16.78251,0.16641"
       stroke-dashoffset="0"
       stroke-miterlimit="4"
       stroke-linejoin="round"
       stroke-linecap="round"
       fill-rule="evenodd"
       fill="#eeeeec"
       stroke="#888a85"
       stroke-width="5" />
    <path
       id="path3943"
       d="m34.12147,57.89623l16.52586,0"
       stroke-dashoffset="0"
       stroke-miterlimit="4"
       stroke-linejoin="round"
       stroke-linecap="round"
       fill-rule="evenodd"
       fill="#eeeeec"
       stroke="#888a85"
       stroke-width="5" />
    <path
       id="path3945"
       d="m13.75785,14.04333l7.96922,-0.02281"
       stroke-dashoffset="0"
       stroke-miterlimit="4"
       stroke-linejoin="round"
       stroke-linecap="round"
       fill-rule="evenodd"
       fill="#eeeeec"
       stroke="#888a85"
       stroke-width="5" />
    <path
       id="path3947"
       d="m34.12147,14.02052l16.52586,0"
       stroke-dashoffset="0"
       stroke-miterlimit="4"
       stroke-linejoin="round"
       stroke-linecap="round"
       fill-rule="evenodd"
       fill="#eeeeec"
       stroke="#888a85"
       stroke-width="5" />
  </g>
  <g
     id="g4271"
     transform="matrix(0.9609401,0,0,0.9609401,-61.904675,99.282711)">
    <g
       id="g4253"
       style="stroke-width:0.6850723"
       transform="matrix(2.5830428,0,0,2.5830428,52.082621,-129.07075)">
      <path
         id="path4255"
         d="m 28.047228,42.009355 c -0.345913,-1.416616 0.987799,-0.604239 1.465343,-0.258379 1.934603,0.94182 3.845662,1.937494 5.795217,2.845095 1.288839,0.213162 2.286951,-0.942556 2.953415,-1.889308 0.929604,-1.496214 1.763227,-3.364149 1.231417,-5.144225 -0.32985,-0.892914 -1.358116,-1.064525 -2.095002,-1.506514 -1.794555,-0.892651 -3.600134,-1.770588 -5.387367,-2.672468 -0.07476,-0.912353 1.414426,-0.993557 2.129312,-1.158613 3.021304,-0.477513 6.477515,-0.07339 8.747813,2.165011 1.862863,1.817013 2.693117,4.546797 2.366248,7.105947 0.816247,2.194501 2.045933,4.27106 3.801165,5.844733 -1.536971,1.609349 -3.073886,3.218516 -4.610856,4.827866 -1.531554,-1.403777 -3.324173,-2.542347 -5.299969,-3.204231 -2.604527,0.862045 -5.560442,0.08391 -7.547964,-1.761855 -1.563817,-1.406545 -2.854542,-3.196388 -3.547701,-5.185309 z"
         inkscape:connector-curvature="0"
         style="fill-rule:evenodd;stroke:#1f1b1e;stroke-width:1.16432142;stroke-linecap:round;stroke-linejoin:round;stroke-dashoffset:0.3612" />
      <path
         id="path4257"
         transform="matrix(1.6737385,-0.2951333,0.2951333,1.6737385,-294.12012,-1682.7659)"
         d="m 20.569654,1038.9536 c -0.377958,0.2957 -0.449831,0.8327 -0.161152,1.2039 l 5.276506,7.7275 c 0.288677,0.3713 1.28112,0.076 1.659095,-0.2199 0.377957,-0.2957 0.905829,-1.1891 0.617119,-1.5603 l -6.181727,-7.0148 c -0.288677,-0.3712 -0.825389,-0.432 -1.203364,-0.1363 z"
         inkscape:connector-curvature="0"
         style="opacity:0.23106001;fill:url(#i)" />
      <path
         id="path4259"
         d="m 28.593215,41.984358 c 0.01188,0.02724 0.04734,0.0089 0.04579,-0.0081 l 6.202479,3.06425 c 0.835603,0.413366 1.776969,0.03424 2.546684,-0.557773 0.777406,-0.597342 1.513741,-1.498255 2.062429,-2.649971 0.549821,-1.154332 0.780419,-2.346776 0.761924,-3.335146 -0.01843,-0.98614 -0.346467,-1.895422 -1.150581,-2.293286 L 32.812769,33.14262 c -0.0041,-0.01999 3.12e-4,-0.0501 -0.0026,-0.04787 -0.03118,0.03311 0.02565,0.01273 0.04579,-0.0081 2.639981,-0.763369 5.745947,-0.602085 7.844506,0.436116 2.870621,1.419972 4.373885,4.620266 3.97295,7.888136 -0.405387,3.253641 -3.053927,6.155722 -5.675941,6.982365 -1.698532,0.524193 -3.557505,0.436241 -5.219023,-0.385468 -2.092518,-1.03547 -4.139189,-3.447048 -5.187306,-6.035905 l -1.55e-4,2.7e-5 z"
         inkscape:connector-curvature="0"
         style="fill:#f0f3f2;fill-rule:evenodd" />
      <path
         id="path4261"
         d="m 52.044934,60.500068 0.455078,0 c 0.546065,0 1.046673,-0.265518 1.410156,-0.648438 0.363484,-0.382919 0.589844,-0.88324 0.589844,-1.351562 l 0,-7.435547 -5.824219,-4.75 -5.117187,5.679688 8.486328,8.505859 z"
         inkscape:connector-curvature="0"
         style="stroke:#1d1b21;stroke-width:1.16432047;stroke-linecap:round;stroke-linejoin:round;stroke-dashoffset:0.69999999" />
      <path
         id="path4263"
         d="m -679.10767,874.67072 3.57105,0 0,0.57711 -3.57105,0 z"
         transform="matrix(1.21312,-1.19031,1.3293,1.059,-294.11616,-1682.7197)"
         inkscape:connector-curvature="0"
         style="fill:#ffffff;fill-opacity:0.57758622;stroke:#1f1b1e;stroke-width:0.68764025" />
    </g>
  </g>
</svg>
