<svg xmlns="http://www.w3.org/2000/svg" xmlns:xlink="http://www.w3.org/1999/xlink" width="128" height="128"><defs><radialGradient xlink:href="#linearGradient3184" id="b" gradientUnits="userSpaceOnUse" gradientTransform="matrix(.97394 0 0 .97506 -92.994702 1.6957237)" cx="255" cy="63.00572" fx="262.43524" fy="71.575" r="23.27944"/><radialGradient xlink:href="#linearGradient3184" id="a" gradientUnits="userSpaceOnUse" gradientTransform="matrix(.97394 0 0 .97506 -44.261685 1.6957237)" cx="255" cy="63.00572" fx="262.43524" fy="71.575" r="23.27944"/><linearGradient id="c"><stop offset="0" stop-color="#f1f1f1"/><stop offset="1" stop-color="#d6d6d6"/></linearGradient><linearGradient xlink:href="#c" id="d" x1=".23077" y1=".13333" x2=".61538" y2=".93333"/></defs><path fill="none" d="M-1-1h130v130H-1z"/><g stroke="null"><path fill="none" d="M47.33650664 4.33362389h.0910223v.0910223h-.0910223z" stroke-width=".00284"/><g fill="#515151"><path d="M47.4088826 4.3458295s-.0037689.00367787-.0063801.00626063c-.01333192-.00973939-.0321195-.00863574-.04416004.0034048-.00702578.00702579-.01030543.01634704-.00991005.02555167h.01137779c-.00040107-.00629192.00175786-.01270614.00656498-.0175161.00757476-.00757477.01915735-.00865566.02790971-.00330525-.00296391.00293547-.00638578.00636587-.00638578.00636587-.00239218.00287005.00029582.00452836.00166116.0044857l.01599717-.00000285c.0008448 0 .00153315.00000284.00153315.00000284h.00465067c.00084765 0 .001536-.0006912.001536-.00153884v-.02199042c.00009672-.00201103-.00211057-.00396232-.00439466-.00171805zM47.35515384 4.41244076s.00377173-.00367787.0063801-.00626063c.01333476.0097394.03211949.00863575.04416287-.0034048.00702579-.00702863.0103026-.01634704.00991006-.02555167h-.01138063c.0004039.00628908-.00175503.01270615-.00656499.01751895-.00757476.00757192-.01915735.00865566-.02790971.0033024.00296391-.00293546.00638578-.00636587.00638578-.00636587.00239218-.00287289-.00029582-.00452836-.00166116-.00448569l-.01599716.00000569c-.0008448 0-.001536-.00000569-.001536-.00000569H47.352298c-.00084764 0-.001536.00068836-.00153884.00153885v.02199326c-.00009387.00200818.00211342.00395947.00439467.0017152z" stroke-width=".00284"/></g></g><path d="M38.59171 33.15378l41.88971.0081v31.47893" stroke-width="3" fill="none" stroke="#2b3b4d"/><rect ry="1" rx="1" y="6.709872" x="5.20121" height="59.830471" width="53.709047" stroke-linejoin="round" stroke-linecap="round" fill-rule="evenodd" fill="url(#d)" stroke="#888a85" stroke-width="5"/><path d="M5.20121 21.99791h53.70905" stroke-linejoin="round" stroke-linecap="round" fill-rule="evenodd" fill="#eeeeec" stroke="#888a85" stroke-width="2"/><path d="M13.13078 33.96401h8.26293" stroke-linejoin="round" stroke-linecap="round" fill-rule="evenodd" fill="#7DD8B5" stroke="#ff0" stroke-width="5"/><path d="M13.46414 46.26346h8.26293M13.46414 58.22959h8.26293" stroke-linejoin="round" stroke-linecap="round" fill-rule="evenodd" fill="#eeeeec" stroke="#888a85" stroke-width="5"/><path d="M33.78811 33.96401h16.52586" stroke-linejoin="round" stroke-linecap="round" fill-rule="evenodd" fill="#7DD8B5" stroke="#ff0" stroke-width="5"/><path d="M33.86482 46.09705l16.78251.16641M34.12147 57.89623h16.52586M13.75785 14.04333l7.96922-.02281M34.12147 14.02052h16.52586" stroke-linejoin="round" stroke-linecap="round" fill-rule="evenodd" fill="#eeeeec" stroke="#888a85" stroke-width="5"/><g><g stroke-width=".6850723"><path d="M57.76101437 79.52694717c-.85860775-3.51625256 2.4518647-1.49981148 3.63720026-.64133528 4.80197368 2.33773795 9.54550765 4.80914958 14.38459443 7.06195086 3.19909096.52909994 5.67655407-2.33956481 7.3308173-4.68954473 2.307416-3.71382669 4.37659284-8.35032044 3.05656097-12.76873503-.81873698-2.21634595-3.37104683-2.6423101-5.20010797-3.73939283-4.45435363-2.21569315-8.93607047-4.39486395-13.3722498-6.63346486-.1855655-2.26459646 3.51081665-2.46615692 5.28527051-2.87585057 7.49932793-1.1852586 16.07816001-.18216494 21.71337885 5.37388077 4.62390429 4.51009774 6.68471876 11.28582948 5.87338107 17.63802213 2.026047 5.44707935 5.07831138 10.60140904 9.43505945 14.50750055-3.81499166 3.99464466-7.62984431 7.98883758-11.44483349 11.98348472-3.80154585-3.48438424-8.25109404-6.3104851-13.1553149-7.95338007-6.46482515 2.13972448-13.80184782.20827715-18.73517437-4.37318734-3.88162744-3.49125484-7.08539973-7.93391258-8.80592393-12.87071166z" fill-rule="evenodd" stroke="#1f1b1e" stroke-width="2.890020412653" stroke-linecap="round" stroke-linejoin="round" stroke-dashoffset=".3612"/><path transform="rotate(-10.000123 -24382.68280343 2139.1510359) scale(4.21856)" d="M20.569654 1038.9536c-.377958.2957-.449831.8327-.161152 1.2039l5.276506 7.7275c.288677.3713 1.28112.076 1.659095-.2199.377957-.2957.905829-1.1891.617119-1.5603l-6.181727-7.0148c-.288677-.3712-.825389-.432-1.203364-.1363z" opacity=".23106001" fill="url(#i)"/><path d="M59.11623568 79.46490088c.02948793.06761375.11750495.02209113.11365762-.0201054l15.39547957 7.60592631c2.07409149 1.02603617 4.41070254.0849888 6.32125017-1.38447592 1.92963785-1.4826921 3.75733133-3.71889276 5.11925692-6.57762395 1.36473787-2.86522448 1.93711656-5.82504865 1.8912092-8.27833066-.045746-2.44774682-.85998285-4.7047206-2.85591394-5.69227848l-15.51137609-7.59962663c-.01017681-.04961816.00077443-.12435568-.00645359-.11882049-.07739341.08218397.06366714.03159776.11365763-.02010541 6.55282727-1.89479591 14.26229893-1.49446493 19.4712359 1.08250507 7.12531022 3.52458266 10.85663606 11.46819051 9.8614555 19.5795321-1.0062311 8.07602307-7.5803031 15.2794217-14.0885336 17.33127313-4.21601019 1.30112535-8.83025892 1.08281534-12.95439483-.95678917-5.19394232-2.57019124-10.27408552-8.55608814-12.87566851-14.982018l-.00038474.000067z" fill="#f0f3f2" fill-rule="evenodd"/><path d="M117.32690607 125.42365947h1.1295716c1.3554149 0 2.59799876-.65905535 3.50021787-1.60952.9022216-.95046217 1.46408093-2.19233364 1.46408093-3.35477881v-18.45613858L108.96419474 90.2130124l-12.70162268 14.0978342 21.06433401 21.11281287z" stroke="#1d1b21" stroke-width="2.8900180546105" stroke-linecap="round" stroke-linejoin="round" stroke-dashoffset=".69999999"/><path d="M-679.10767 874.67072h3.57105v.57711h-3.57105z" transform="matrix(3.01115 -2.95453 3.29952 2.6286 -741.89664796 -4201.50825313)" fill="#fff" fill-opacity=".57758622" stroke="#1f1b1e" stroke-width=".68764025"/></g></g></svg>