<svg width="128" height="128" xmlns="http://www.w3.org/2000/svg" xmlns:xlink="http://www.w3.org/1999/xlink"><defs><radialGradient xlink:href="#linearGradient3184" id="b" gradientUnits="userSpaceOnUse" gradientTransform="matrix(.97394 0 0 .97506 -92.994702 1.6957237)" cx="255" cy="63.00572" fx="262.43524" fy="71.575" r="23.27944"/><radialGradient xlink:href="#linearGradient3184" id="a" gradientUnits="userSpaceOnUse" gradientTransform="matrix(.97394 0 0 .97506 -44.261685 1.6957237)" cx="255" cy="63.00572" fx="262.43524" fy="71.575" r="23.27944"/><linearGradient id="c"><stop offset="0" stop-color="#f1f1f1"/><stop offset="1" stop-color="#d6d6d6"/></linearGradient><linearGradient xlink:href="#c" id="e" x1=".23077" y1=".13333" x2=".61538" y2=".93333"/><linearGradient xlink:href="#c" id="d" x1=".23077" y1=".13333" x2=".61538" y2=".93333"/></defs><path fill="none" d="M-1-1h130v130H-1z"/><g><g stroke="null"><path fill="none" d="M47.33650664 4.33362389h.0910223v.0910223h-.0910223z" stroke-width=".00284"/><g fill="#515151"><path d="M47.4088826 4.3458295s-.0037689.00367787-.0063801.00626063c-.01333192-.00973939-.0321195-.00863574-.04416004.0034048-.00702578.00702579-.01030543.01634704-.00991005.02555167h.01137779c-.00040107-.00629192.00175786-.01270614.00656498-.0175161.00757476-.00757477.01915735-.00865566.02790971-.00330525-.00296391.00293547-.00638578.00636587-.00638578.00636587-.00239218.00287005.00029582.00452836.00166116.0044857l.01599717-.00000285c.0008448 0 .00153315.00000284.00153315.00000284h.00465067c.00084765 0 .001536-.0006912.001536-.00153884v-.02199042c.00009672-.00201103-.00211057-.00396232-.00439466-.00171805zM47.35515384 4.41244076s.00377173-.00367787.0063801-.00626063c.01333476.0097394.03211949.00863575.04416287-.0034048.00702579-.00702863.0103026-.01634704.00991006-.02555167h-.01138063c.0004039.00628908-.00175503.01270615-.00656499.01751895-.00757476.00757192-.01915735.00865566-.02790971.0033024.00296391-.00293546.00638578-.00636587.00638578-.00636587.00239218-.00287289-.00029582-.00452836-.00166116-.00448569l-.01599716.00000569c-.0008448 0-.001536-.00000569-.001536-.00000569H47.352298c-.00084764 0-.001536.00068836-.00153884.00153885v.02199326c-.00009387.00200818.00211342.00395947.00439467.0017152z" stroke-width=".00284"/></g></g><path d="M38.59171 33.15378l41.88971.0081v31.47893" stroke-width="3" fill="none" stroke="#2b3b4d"/><rect ry="1" rx="1" y="6.709872" x="5.20121" height="59.830471" width="53.709047" stroke-linejoin="round" stroke-linecap="round" fill-rule="evenodd" fill="url(#d)" stroke="#888a85" stroke-width="5"/><path d="M5.20121 21.99791h53.70905" stroke-linejoin="round" stroke-linecap="round" fill-rule="evenodd" fill="#eeeeec" stroke="#888a85" stroke-width="2"/><path d="M13.13078 33.96401h8.26293" stroke-linejoin="round" stroke-linecap="round" fill-rule="evenodd" fill="#7DD8B5" stroke="#ff0" stroke-width="5"/><path d="M13.46414 46.26346h8.26293M13.46414 58.22959h8.26293" stroke-linejoin="round" stroke-linecap="round" fill-rule="evenodd" fill="#eeeeec" stroke="#888a85" stroke-width="5"/><path d="M33.78811 33.96401h16.52586" stroke-linejoin="round" stroke-linecap="round" fill-rule="evenodd" fill="#7DD8B5" stroke="#ff0" stroke-width="5"/><path d="M33.86482 46.09705l16.78251.16641M34.12147 57.89623h16.52586M13.75785 14.04333l7.96922-.02281M34.12147 14.02052h16.52586" stroke-linejoin="round" stroke-linecap="round" fill-rule="evenodd" fill="#eeeeec" stroke="#888a85" stroke-width="5"/><rect width="53.709047" height="59.830471" x="68.481416" y="62.02033" rx="1" ry="1" stroke-linejoin="round" stroke-linecap="round" fill-rule="evenodd" fill="url(#e)" stroke="#888a85" stroke-width="5"/><path d="M68.48142 77.64177h53.70904" stroke-linejoin="round" stroke-linecap="round" fill-rule="evenodd" fill="#eeeeec" stroke="#888a85" stroke-width="2"/><path d="M76.74435 89.94122h8.26293" stroke-linejoin="round" stroke-linecap="round" fill-rule="evenodd" fill="#eeeeec" stroke="#888a85" stroke-width="5"/><path d="M76.41099 101.57395h8.26293M76.41099 113.54009h8.26293" stroke-linejoin="round" stroke-linecap="round" fill-rule="evenodd" fill="#7DD8B5" stroke="#ff0" stroke-width="5"/><path d="M97.40167 89.94122h16.52586" stroke-linejoin="round" stroke-linecap="round" fill-rule="evenodd" fill="#eeeeec" stroke="#888a85" stroke-width="5"/><path d="M96.81167 101.40755l16.78251.1664M97.06832 113.54009h16.52586" stroke-linejoin="round" stroke-linecap="round" fill-rule="evenodd" fill="#7DD8B5" stroke="#ff0" stroke-width="5"/><path d="M77.03805 70.02054l7.96923-.02281M97.40167 69.99773h16.52586" stroke-linejoin="round" stroke-linecap="round" fill-rule="evenodd" fill="#eeeeec" stroke="#888a85" stroke-width="5"/></g></svg>