<svg xmlns="http://www.w3.org/2000/svg" xmlns:xlink="http://www.w3.org/1999/xlink" width="128" height="128"><defs><linearGradient id="a"><stop offset="0" stop-color="#f1f1f1"/><stop offset="1" stop-color="#d6d6d6"/></linearGradient><linearGradient id="b" x1=".231" x2=".615" y1=".133" y2=".933" xlink:href="#a"/></defs><path fill="none" d="M-1-1h130v130H-1z"/><g stroke="null" stroke-width=".003"><path fill="none" d="M47.337 4.334h.09v.09h-.09z"/><path fill="#515151" d="M47.409 4.346l-.006.006a.034.034 0 00-.055.029h.012a.023.023 0 01.034-.02l-.006.006c-.002.002 0 .004.002.004h.016a.415.415 0 01.001 0h.005l.001-.001v-.022c0-.002-.002-.004-.004-.002zm-.054.066l.007-.006a.034.034 0 00.054-.029h-.012a.023.023 0 01-.034.021l.006-.006c.003-.003 0-.005-.002-.005h-.016-.006l-.001.002v.022c0 .002.002.004.004.001z"/></g><path fill="none" stroke="#2b3b4d" stroke-width="3" d="M38.592 33.154l41.89.008V64.64"/><rect width="53.709" height="59.83" x="5.201" y="6.71" fill="url(#b)" fill-rule="evenodd" stroke="#888a85" stroke-linecap="round" stroke-linejoin="round" stroke-width="5" rx="1" ry="1"/><path fill="#eeeeec" fill-rule="evenodd" stroke="#888a85" stroke-linecap="round" stroke-linejoin="round" stroke-width="2" d="M5.201 21.998h53.71"/><path fill="#7DD8B5" fill-rule="evenodd" stroke="#ff0" stroke-linecap="round" stroke-linejoin="round" stroke-width="5" d="M13.13 33.964h8.264"/><path fill="#eeeeec" fill-rule="evenodd" stroke="#888a85" stroke-linecap="round" stroke-linejoin="round" stroke-width="5" d="M13.464 46.263h8.263M13.464 58.23h8.263"/><path fill="#7DD8B5" fill-rule="evenodd" stroke="#ff0" stroke-linecap="round" stroke-linejoin="round" stroke-width="5" d="M33.788 33.964h16.526"/><path fill="#eeeeec" fill-rule="evenodd" stroke="#888a85" stroke-linecap="round" stroke-linejoin="round" stroke-width="5" d="M33.865 46.097l16.782.166M34.121 57.896h16.526m-36.89-43.853l7.97-.022m12.394 0h16.526"/><g stroke-width=".685"><path fill-rule="evenodd" stroke="#1f1b1e" stroke-dashoffset=".361" stroke-linecap="round" stroke-linejoin="round" stroke-width="2.89" d="M57.761 79.527c-.859-3.516 2.452-1.5 3.637-.641 4.802 2.337 9.546 4.809 14.385 7.062 3.199.529 5.676-2.34 7.33-4.69 2.308-3.714 4.377-8.35 3.057-12.769-.819-2.216-3.37-2.642-5.2-3.74-4.454-2.215-8.936-4.394-13.372-6.633-.186-2.264 3.51-2.466 5.285-2.875 7.5-1.186 16.078-.183 21.713 5.373 4.624 4.51 6.685 11.286 5.874 17.638 2.026 5.448 5.078 10.602 9.435 14.508L98.46 104.743c-3.801-3.484-8.251-6.31-13.155-7.953-6.465 2.14-13.802.208-18.735-4.373-3.882-3.491-7.086-7.934-8.806-12.87z"/><path fill="#f0f3f2" fill-rule="evenodd" d="M59.116 79.465c.03.068.118.022.114-.02l15.395 7.606c2.074 1.026 4.411.085 6.322-1.385 1.93-1.482 3.757-3.719 5.119-6.577 1.365-2.866 1.937-5.825 1.891-8.279-.046-2.447-.86-4.704-2.856-5.692l-15.511-7.6c-.01-.05 0-.124-.007-.118-.077.082.064.031.114-.02 6.553-1.895 14.262-1.495 19.471 1.082 7.126 3.525 10.857 11.468 9.862 19.58-1.007 8.076-7.58 15.279-14.089 17.33-4.216 1.302-8.83 1.084-12.954-.956-5.194-2.57-10.274-8.556-12.876-14.982z"/><path stroke="#1d1b21" stroke-dashoffset=".7" stroke-linecap="round" stroke-linejoin="round" stroke-width="2.89" d="M117.327 125.424h1.13c1.355 0 2.597-.66 3.5-1.61.902-.95 1.464-2.192 1.464-3.355v-18.456l-14.457-11.79-12.701 14.098 21.064 21.113z"/><path fill="#fff" fill-opacity=".578" stroke="#1f1b1e" stroke-width=".688" d="M-679.108 874.67h3.571v.578h-3.57z" transform="matrix(3.01115 -2.95453 3.29952 2.6286 -741.897 -4201.508)"/></g></svg>